<svg width="14" height="16" viewBox="0 0 14 16" fill="none" xmlns="http://www.w3.org/2000/svg">
<path d="M7.00021 0C3.67221 0 0.964844 2.70737 0.964844 6.03495C0.964844 10.8261 6.35263 15.6392 6.58211 15.8421C6.70211 15.9474 6.85116 16 7.00021 16C7.15516 16 7.31011 15.9432 7.43095 15.8299C7.65958 15.616 13.0356 10.5381 13.0356 6.03537C13.0356 2.70779 10.3274 0 7.00021 0ZM7.00021 8.91284C5.41074 8.91284 4.12274 7.624 4.12274 6.03579C4.12274 4.44758 5.41074 3.15874 7.00021 3.15874C8.58884 3.15874 9.87684 4.44716 9.87684 6.03579C9.87684 7.62442 8.58884 8.91284 7.00021 8.91284Z" fill="#828282"/>
</svg>
