<svg width="32" height="32" viewBox="0 0 32 32" fill="none" xmlns="http://www.w3.org/2000/svg">
<path d="M16 32C24.8366 32 32 24.8366 32 16C32 7.16344 24.8366 0 16 0C7.16344 0 0 7.16344 0 16C0 24.8366 7.16344 32 16 32Z" fill="#22A221"/>
<path d="M16.0002 28.8001C23.0694 28.8001 28.8002 23.0693 28.8002 16.0001C28.8002 8.93083 23.0694 3.20007 16.0002 3.20007C8.93095 3.20007 3.2002 8.93083 3.2002 16.0001C3.2002 23.0693 8.93095 28.8001 16.0002 28.8001Z" fill="#22A221"/>
<path fill-rule="evenodd" clip-rule="evenodd" d="M8.80304 12.3744L12.3022 15.5568C12.3584 15.6074 12.4256 15.644 12.4985 15.6638C12.5714 15.6836 12.6479 15.6859 12.7219 15.6707C12.7959 15.6554 12.8652 15.623 12.9244 15.5759C12.9835 15.5289 13.0307 15.4687 13.0622 15.4L15.563 9.88481C15.6007 9.80046 15.662 9.72882 15.7395 9.67855C15.817 9.62828 15.9074 9.60153 15.9998 9.60153C16.0922 9.60153 16.1826 9.62828 16.2601 9.67855C16.3377 9.72882 16.399 9.80046 16.4366 9.88481L18.9374 15.4C18.9684 15.4692 19.0154 15.53 19.0745 15.5774C19.1336 15.6248 19.2031 15.6575 19.2773 15.6729C19.3515 15.6882 19.4283 15.6856 19.5014 15.6655C19.5744 15.6453 19.6416 15.608 19.6974 15.5568L23.1966 12.3744C23.291 12.289 23.4153 12.2445 23.5424 12.2505C23.6695 12.2565 23.7891 12.3125 23.875 12.4064C23.9742 12.5152 24.0174 12.6624 23.9934 12.8064L22.6398 21.0576C22.5784 21.4321 22.3858 21.7725 22.0965 22.0181C21.8073 22.2637 21.4401 22.3985 21.0606 22.3984H10.939C10.5596 22.3985 10.1924 22.2637 9.90315 22.0181C9.61387 21.7725 9.42131 21.4321 9.35984 21.0576L8.00624 12.8064C7.99026 12.7083 8.00516 12.6076 8.04886 12.5183C8.09256 12.429 8.16292 12.3555 8.25021 12.3079C8.3375 12.2603 8.43742 12.241 8.53616 12.2526C8.6349 12.2642 8.7276 12.3062 8.80144 12.3728" fill="white"/>
</svg>
