<svg width="16" height="16" viewBox="0 0 16 16" fill="none" xmlns="http://www.w3.org/2000/svg">
<path d="M0.685714 3.54284H15.3143C15.6914 3.54284 16 3.23427 16 2.85713C16 2.47999 15.6914 2.17142 15.3143 2.17142H0.685714C0.308571 2.17142 0 2.47999 0 2.85713C0 3.23427 0.308571 3.54284 0.685714 3.54284Z" fill="#4F4F4F"/>
<path d="M0.685714 8.68569H15.3143C15.6914 8.68569 16 8.37712 16 7.99998C16 7.62284 15.6914 7.31427 15.3143 7.31427H0.685714C0.308571 7.31427 0 7.62284 0 7.99998C0 8.37712 0.308571 8.68569 0.685714 8.68569Z" fill="#4F4F4F"/>
<path d="M0.685714 13.8285H15.3143C15.6914 13.8285 16 13.52 16 13.1428C16 12.7657 15.6914 12.4571 15.3143 12.4571H0.685714C0.308571 12.4571 0 12.7657 0 13.1428C0 13.52 0.308571 13.8285 0.685714 13.8285Z" fill="#4F4F4F"/>
</svg>
